<?xml version="1.0" encoding="UTF-8" ?>
<!DOCTYPE svg PUBLIC "-//W3C//DTD SVG 1.1//EN" "http://www.w3.org/Graphics/SVG/1.1/DTD/svg11.dtd">
<svg width="400pt" height="400pt" viewBox="0 0 400 400" version="1.1" xmlns="http://www.w3.org/2000/svg">
<path fill="#3d98b6" stroke="#3d98b6" stroke-width="0.09375" opacity="1.00" d=" M 194.5 0.0 L 205.5 0.0 C 244.4 1.2 283.0 13.7 314.8 36.2 C 358.7 66.9 389.9 115.9 397.4 169.1 C 393.6 166.8 390.9 163.3 387.7 160.3 C 363.2 135.8 338.7 111.3 314.2 86.8 C 313.5 86.4 312.6 84.8 311.7 85.8 C 305.1 76.4 295.3 69.1 284.0 66.9 C 268.6 63.3 251.4 68.0 240.3 79.3 C 230.8 88.6 225.7 102.0 226.2 115.2 C 224.4 113.7 222.7 111.9 220.7 110.6 C 220.3 110.6 219.3 110.7 218.9 110.7 C 218.8 110.1 218.7 109.0 218.7 108.4 C 204.9 108.2 191.1 106.9 177.4 108.6 C 175.9 108.7 174.9 109.9 173.8 110.8 C 136.4 148.4 98.8 185.8 61.3 223.4 C 56.2 228.3 54.7 236.3 57.1 242.9 C 58.7 247.2 62.5 250.2 65.6 253.4 C 88.0 275.7 110.3 298.0 132.6 320.4 C 135.4 323.4 138.5 326.1 141.6 328.6 C 141.3 329.7 142.0 330.5 142.7 331.2 C 163.5 351.8 184.1 372.6 204.8 393.2 C 206.6 394.9 208.4 396.5 209.8 398.5 C 208.5 399.3 207.0 399.8 205.5 400.0 L 194.5 400.0 C 174.9 399.2 155.5 396.0 136.9 389.8 C 104.1 379.0 74.3 359.4 51.3 333.7 C 27.3 307.2 10.6 274.1 3.9 238.9 C 1.4 228.0 0.7 216.7 0.0 205.5 L 0.0 191.5 C 1.4 169.7 5.5 147.9 13.6 127.6 C 27.9 90.5 53.7 57.9 86.4 35.4 C 113.7 16.4 145.9 4.6 178.9 1.1 C 184.1 0.5 189.3 0.6 194.5 0.0 Z" />
<path fill="#ffffff" stroke="#ffffff" stroke-width="0.09375" opacity="1.00" d=" M 240.3 79.3 C 251.4 68.0 268.6 63.3 284.0 66.9 C 295.3 69.1 305.1 76.4 311.7 85.8 C 317.0 93.9 320.0 103.3 320.6 112.9 C 321.0 125.5 319.7 138.2 316.4 150.4 C 313.7 162.6 309.2 174.4 303.4 185.4 C 302.0 188.2 299.5 191.1 296.0 190.8 C 290.9 191.6 286.8 185.8 288.2 181.1 C 289.4 177.3 291.8 174.0 293.3 170.3 C 299.2 156.2 303.4 141.3 304.6 126.1 C 304.8 118.4 305.6 110.5 302.8 103.1 C 300.3 95.6 295.2 88.6 288.1 84.9 C 281.7 81.4 274.0 80.9 266.9 82.1 C 252.8 84.8 241.6 98.5 242.2 113.0 C 242.6 122.9 244.4 132.7 246.5 142.4 C 247.0 145.9 247.8 150.2 244.7 152.7 C 240.9 156.9 233.0 154.9 231.8 149.2 C 229.1 138.0 227.5 126.6 226.2 115.2 C 225.7 102.0 230.8 88.6 240.3 79.3 Z" />
<path fill="#26799c" stroke="#26799c" stroke-width="0.09375" opacity="1.00" d=" M 242.2 113.0 C 241.6 98.5 252.8 84.8 266.9 82.1 C 274.0 80.9 281.7 81.4 288.1 84.9 C 295.2 88.6 300.3 95.6 302.8 103.1 C 305.6 110.5 304.8 118.4 304.6 126.1 C 303.4 141.3 299.2 156.2 293.3 170.3 C 291.8 174.0 289.4 177.3 288.2 181.1 C 286.8 185.8 290.9 191.6 296.0 190.8 C 299.5 191.1 302.0 188.2 303.4 185.4 C 309.2 174.4 313.7 162.6 316.4 150.4 C 319.7 138.2 321.0 125.5 320.6 112.9 C 320.0 103.3 317.0 93.9 311.7 85.8 C 312.6 84.8 313.5 86.4 314.2 86.8 C 338.7 111.3 363.2 135.8 387.7 160.3 C 390.9 163.3 393.6 166.8 397.4 169.1 C 399.0 171.9 399.7 175.2 400.0 178.5 L 400.0 220.5 C 395.4 263.2 376.9 304.2 347.7 335.7 C 315.5 370.8 270.4 393.6 223.1 398.9 C 219.9 399.0 216.7 399.5 213.5 400.0 L 205.5 400.0 C 207.0 399.8 208.5 399.3 209.8 398.5 C 208.4 396.5 206.6 394.9 204.8 393.2 C 184.1 372.6 163.5 351.8 142.7 331.2 C 142.0 330.5 141.3 329.7 141.6 328.6 C 146.5 330.8 152.3 331.2 157.3 329.2 C 161.5 327.4 164.5 323.8 167.7 320.7 C 203.8 284.5 240.0 248.3 276.2 212.2 C 279.2 209.3 279.1 204.8 279.4 201.0 C 280.0 174.9 277.3 148.8 274.0 123.0 C 273.7 119.2 272.3 114.7 268.2 113.7 C 262.2 112.2 256.0 111.5 249.9 111.1 C 249.2 116.4 250.5 121.8 251.1 127.1 C 251.3 130.7 255.4 132.1 257.0 135.0 C 262.8 143.0 261.9 155.0 255.0 162.0 C 249.2 168.4 239.4 170.6 231.5 167.4 C 223.0 164.1 217.1 155.1 217.7 146.0 C 217.7 142.0 219.8 138.6 221.1 135.0 C 220.4 126.9 218.3 118.9 218.9 110.7 C 219.3 110.7 220.3 110.6 220.7 110.6 C 222.7 111.9 224.4 113.7 226.2 115.2 C 227.5 126.6 229.1 138.0 231.8 149.2 C 233.0 154.9 240.9 156.9 244.7 152.7 C 247.8 150.2 247.0 145.9 246.5 142.4 C 244.4 132.7 242.6 122.9 242.2 113.0 Z" />
<path fill="#ffffff" stroke="#ffffff" stroke-width="0.09375" opacity="1.00" d=" M 177.4 108.6 C 191.1 106.9 204.9 108.2 218.7 108.4 C 218.7 109.0 218.8 110.1 218.9 110.7 C 218.3 118.9 220.4 126.9 221.1 135.0 C 219.8 138.6 217.7 142.0 217.7 146.0 C 217.1 155.1 223.0 164.1 231.5 167.4 C 239.4 170.6 249.2 168.4 255.0 162.0 C 261.9 155.0 262.8 143.0 257.0 135.0 C 255.4 132.1 251.3 130.7 251.1 127.1 C 250.5 121.8 249.2 116.4 249.9 111.1 C 256.0 111.5 262.2 112.2 268.2 113.7 C 272.3 114.7 273.7 119.2 274.0 123.0 C 277.3 148.8 280.0 174.9 279.4 201.0 C 279.1 204.8 279.2 209.3 276.2 212.2 C 240.0 248.3 203.8 284.5 167.7 320.7 C 164.5 323.8 161.5 327.4 157.3 329.2 C 152.3 331.2 146.5 330.8 141.6 328.6 C 138.5 326.1 135.4 323.4 132.6 320.4 C 110.3 298.0 88.0 275.7 65.6 253.4 C 62.5 250.2 58.7 247.2 57.1 242.9 C 54.7 236.3 56.2 228.3 61.3 223.4 C 98.8 185.8 136.4 148.4 173.8 110.8 C 174.9 109.9 175.9 108.7 177.4 108.6 Z" />
</svg>
